<svg width="120" height="54" viewBox="0 0 120 54" fill="none" xmlns="http://www.w3.org/2000/svg">
    <g clip-path="url(#clip0_419_269)">
        <path d="M57.8375 52.9241C57.9037 53.0354 57.8871 53.147 57.7878 53.2584C57.6886 53.3697 57.5563 53.4255 57.3907 53.4255H50.5411C50.3096 53.4255 50.1607 53.3419 50.0944 53.1748L40.2521 34.5401L30.509 53.1748C30.4427 53.3419 30.2775 53.4255 30.0126 53.4255H23.2127C22.981 53.4255 22.8156 53.3837 22.7163 53.3001C22.6501 53.1888 22.6501 53.0635 22.7163 52.9241L39.7557 20.2507C39.822 20.0836 39.9872 20 40.2521 20C40.5169 20 40.6821 20.0836 40.7484 20.2507L57.8375 52.9241ZM82.6911 47.2C83.0549 47.2 83.2371 47.3393 83.2371 47.6178V53.0495C83.2371 53.3001 83.0549 53.4255 82.6911 53.4255H61.7947C61.4306 53.4255 61.2488 53.3001 61.2488 53.0495V47.2H68.8429H82.6911ZM68.8429 42.8074H61.2488V20.376C61.2488 20.1253 61.4306 20 61.7947 20H68.3466C68.6774 20 68.8429 20.1253 68.8429 20.376V42.8074ZM119.71 20C120.074 20 120.256 20.1253 120.256 20.376V53.0495C120.256 53.3001 120.074 53.4255 119.71 53.4255H113.158C112.893 53.4255 112.744 53.3837 112.711 53.3001L94.4455 31.2811V46.7367H86.8514V20.376C86.8514 20.1253 87.0169 20 87.3477 20H93.9492C94.1807 20 94.3296 20.0418 94.3959 20.1253L112.711 42.1444V20.376C112.711 20.1253 112.91 20 113.307 20H119.71Z"
              fill="url(#paint0_linear_419_269)"/>
        <path opacity="0.7"
              d="M6.47163 13.3618C6.64719 13.3618 6.73499 13.4223 6.73499 13.5432V15.9415C6.73499 16.0624 6.64719 16.1229 6.47163 16.1229H0.263358C0.087786 16.1229 0 16.0624 0 15.9415V13.5432C0 13.4223 0.087786 13.3618 0.263358 13.3618H1.5599V7.65837V2.76104V0H5.22297V2.76104V7.65837V13.3618H6.47163ZM12.2263 4.51121H15.8654V15.9415C15.8654 16.0624 15.7696 16.1229 15.5781 16.1229H12.4896C12.314 16.1229 12.2263 16.0624 12.2263 15.9415V4.51121ZM8.53926 2.76104C8.36367 2.76104 8.2759 2.70058 8.2759 2.57966V0.181383C8.2759 0.060461 8.36367 0 8.53926 0H19.5285C19.704 0 19.7918 0.060461 19.7918 0.181383V2.57966C19.7918 2.70058 19.704 2.76104 19.5285 2.76104H8.53926ZM29.6291 7.17468C30.6186 7.56431 31.3847 8.13535 31.9275 8.88774C32.47 9.62672 32.7415 10.4732 32.7415 11.4271C32.7415 12.8647 32.1587 14.0068 30.9938 14.8532C29.8285 15.6997 27.0986 16.1229 25.4706 16.1229H25.4466V13.2208H25.4706C26.125 13.2208 28.0169 13.0528 28.4798 12.7169C28.9587 12.381 29.1981 11.9511 29.1981 11.4271C29.1981 10.8762 28.9427 10.4194 28.4319 10.0567C27.9371 9.69389 27.3944 9.49906 26.8039 9.4722C25.8303 9.4722 24.8806 9.29081 23.9548 8.92805C21.8799 8.12191 20.8424 6.7649 20.8424 4.85702C20.8424 3.40596 21.433 2.23705 22.6141 1.35029C23.7952 0.450089 25.1918 0 26.8039 0C28.4638 0 29.8525 0.429936 30.9698 1.28983C32.0869 2.13628 32.6536 3.23802 32.6697 4.59502C32.6854 4.62189 32.6615 4.65548 32.5979 4.69579C32.55 4.7361 32.486 4.75625 32.4063 4.75625H29.4136C29.2379 4.75625 29.1503 4.7025 29.1503 4.59502C29.1342 4.04417 28.9027 3.62765 28.4559 3.3455C28.009 3.0499 27.4583 2.90212 26.8039 2.90212C26.1176 2.90212 25.543 3.07679 25.0801 3.42611C24.6332 3.76202 24.4097 4.23897 24.4097 4.85702C24.4097 5.40788 24.6412 5.84455 25.104 6.16701C25.5829 6.47602 26.1495 6.63054 26.8039 6.63054C27.7775 6.63054 28.7193 6.81192 29.6291 7.17468Z"
              fill="url(#paint1_linear_419_269)"/>
    </g>
    <defs>
        <linearGradient id="paint0_linear_419_269" x1="144.534" y1="15.2074" x2="-36.2485" y2="116.873" gradientUnits="userSpaceOnUse">
            <stop stop-color="#2515E1"/>
            <stop offset="1" stop-color="#C11EEA"/>
        </linearGradient>
        <linearGradient id="paint1_linear_419_269" x1="39.4793" y1="-2.67895" x2="-17.6767" y2="38.2192" gradientUnits="userSpaceOnUse">
            <stop stop-color="#C11EEA"/>
            <stop offset="1" stop-color="#2515E1"/>
        </linearGradient>
        <clipPath id="clip0_419_269">
            <rect width="120" height="53.3333" fill="white"/>
        </clipPath>
    </defs>
</svg>
