<svg width="211" height="70" viewBox="0 0 211 70" fill="none" xmlns="http://www.w3.org/2000/svg">
<g clip-path="url(#clip0_605_19)">
<path d="M65.3855 28.6486C65.9846 26.8721 66.2901 25.0122 66.2905 23.1399C66.2903 20.042 65.4539 16.9999 63.8674 14.3265C60.6795 8.85133 54.7659 5.47101 48.3658 5.47101C47.105 5.47103 45.8476 5.60242 44.6147 5.86301C42.9564 4.01952 40.9209 2.54383 38.6424 1.53322C36.3639 0.522613 33.8941 5.38793e-05 31.396 0H31.2838L31.2417 0.000244249C23.49 0.000244249 16.6157 4.93557 14.2327 12.2114C11.7661 12.7098 9.4358 13.7225 7.39791 15.1815C5.36002 16.6405 3.66152 18.5123 2.41612 20.6714C0.834462 23.3609 0.00096786 26.415 0 29.5245C0.000604455 33.8945 1.64465 38.1088 4.61379 41.3514C4.01445 43.1278 3.70878 44.9878 3.70852 46.8601C3.7088 49.958 4.54514 53.0001 6.13158 55.6735C8.01814 58.9145 10.8992 61.4805 14.3592 63.0016C17.8193 64.5227 21.6795 64.9202 25.3833 64.1368C27.0418 65.9802 29.0775 67.456 31.3562 68.4666C33.6348 69.4772 36.1047 69.9999 38.603 70H38.7152L38.7608 69.9998C46.5167 69.9998 53.3888 65.0642 55.7717 57.7818C58.2384 57.2831 60.5686 56.2704 62.6065 54.8114C64.6445 53.3523 66.343 51.4806 67.5886 49.3215C69.1685 46.6344 70.0004 43.5829 70 40.4763C69.9994 36.1063 68.3554 31.8921 65.3862 28.6496L65.3855 28.6486ZM38.7197 65.4237H38.7013C35.5979 65.4227 32.5929 64.3484 30.2091 62.3877C30.3507 62.3125 30.4906 62.2343 30.6287 62.1531L44.7544 54.1024C45.1069 53.9044 45.4 53.6178 45.604 53.2719C45.8079 52.9259 45.9154 52.5329 45.9155 52.1326V32.4698L51.8861 35.8714C51.9175 35.8868 51.9445 35.9096 51.9647 35.9378C51.985 35.9659 51.9979 35.9986 52.0023 36.0329V52.3054C51.9941 59.5401 46.0525 65.409 38.7197 65.4237ZM10.1549 53.3861C8.98811 51.3954 8.37338 49.1367 8.37259 46.8371C8.37259 46.0871 8.43898 45.3351 8.56826 44.5961C8.67328 44.6582 8.85656 44.7686 8.98808 44.8432L23.1138 52.8939C23.466 53.0968 23.8665 53.2036 24.2743 53.2035C24.682 53.2034 25.0825 53.0964 25.4346 52.8934L42.6806 43.068V49.8714L42.6808 49.8831C42.6808 49.9158 42.6731 49.9482 42.6583 49.9775C42.6435 50.0068 42.6219 50.0323 42.5954 50.052L28.3156 58.187C26.2951 59.3344 24.0048 59.9386 21.6735 59.9392C19.3398 59.9389 17.0472 59.3332 15.0255 58.1829C13.0038 57.0326 11.3242 55.3781 10.1549 53.3853V53.3861ZM6.4387 22.9589C7.99016 20.3 10.4399 18.2641 13.3592 17.2075C13.3592 17.3275 13.3522 17.5401 13.3522 17.6877V33.7894L13.352 33.8026C13.352 34.2024 13.4593 34.5951 13.663 34.9408C13.8666 35.2864 14.1593 35.5727 14.5114 35.7707L31.7574 45.5946L25.787 48.9962C25.7576 49.0154 25.7238 49.027 25.6886 49.0302C25.6535 49.0334 25.6181 49.0279 25.5857 49.0143L11.3044 40.8724C9.28552 39.7185 7.60949 38.0612 6.44428 36.0667C5.27906 34.0723 4.66557 31.8107 4.66531 29.5086C4.66621 27.2101 5.27793 24.952 6.43945 22.9596L6.4387 22.9589ZM55.4931 34.2223L38.2471 24.3971L44.2177 20.9967C44.2471 20.9775 44.2809 20.9658 44.3161 20.9627C44.3512 20.9595 44.3866 20.965 44.419 20.9786L58.7001 29.1137C60.7206 30.2658 62.3984 31.9222 63.565 33.9164C64.7317 35.9107 65.3461 38.1727 65.3466 40.4753C65.3466 45.9712 61.8709 50.889 56.6448 52.7871V36.204C56.6456 36.1978 56.6456 36.1915 56.6456 36.1854C56.6454 35.7871 56.5388 35.3958 56.3365 35.0511C56.1341 34.7064 55.8432 34.4205 55.4931 34.2223ZM61.4357 25.3973C61.2968 25.3134 61.157 25.2311 61.0161 25.1505L46.8904 17.0995C46.5382 16.897 46.1379 16.7903 45.7303 16.7901C45.3226 16.7903 44.9223 16.897 44.5701 17.0995L27.3239 26.925V20.1216L27.3236 20.1098C27.3236 20.0434 27.3556 19.9808 27.4093 19.941L41.6891 11.8128C43.709 10.6638 45.9994 10.0589 48.3309 10.0588C55.6732 10.0588 61.6274 15.9338 61.6274 23.1783C61.627 23.9217 61.5629 24.6638 61.4357 25.3966V25.3973ZM24.0778 37.5231L18.1059 34.1216C18.0746 34.1062 18.0476 34.0833 18.0273 34.0552C18.0071 34.027 17.9942 33.9943 17.9898 33.96V17.6873C17.993 10.4467 23.9472 4.57657 31.2863 4.57657C34.3946 4.57721 37.4046 5.6516 39.7939 7.61328C39.6864 7.6712 39.4989 7.77335 39.3743 7.84789L25.2486 15.8986C24.8961 16.0965 24.603 16.3829 24.3991 16.7287C24.1952 17.0746 24.0878 17.4675 24.0877 17.8676V17.8806L24.0778 37.5231ZM27.3212 30.6235L35.0022 26.2461L42.6833 30.6205V39.3724L35.0022 43.7471L27.3212 39.3724V30.6235Z" fill="#10A37F"/>
<path d="M98.15 19.56C98.39 19.72 98.53 19.93 98.57 20.19C98.61 20.43 98.55 20.67 98.39 20.91C98.25 21.09 98.07 21.19 97.85 21.21C97.63 21.23 97.42 21.19 97.22 21.09C96.46 20.59 95.64 20.2 94.76 19.92C93.9 19.64 92.97 19.5 91.97 19.5C90.75 19.5 89.61 19.72 88.55 20.16C87.51 20.58 86.6 21.2 85.82 22.02C85.04 22.82 84.43 23.77 83.99 24.87C83.57 25.97 83.36 27.18 83.36 28.5C83.36 29.86 83.58 31.1 84.02 32.22C84.46 33.32 85.07 34.27 85.85 35.07C86.65 35.87 87.57 36.48 88.61 36.9C89.65 37.32 90.77 37.53 91.97 37.53C92.95 37.53 93.87 37.39 94.73 37.11C95.61 36.83 96.43 36.45 97.19 35.97C97.39 35.85 97.6 35.81 97.82 35.85C98.06 35.87 98.25 35.98 98.39 36.18C98.57 36.4 98.63 36.64 98.57 36.9C98.53 37.14 98.4 37.33 98.18 37.47C97.68 37.79 97.09 38.09 96.41 38.37C95.73 38.65 95.01 38.87 94.25 39.03C93.49 39.21 92.73 39.3 91.97 39.3C90.53 39.3 89.18 39.04 87.92 38.52C86.66 38 85.54 37.27 84.56 36.33C83.58 35.37 82.81 34.23 82.25 32.91C81.71 31.59 81.44 30.12 81.44 28.5C81.44 26.94 81.71 25.51 82.25 24.21C82.79 22.89 83.54 21.75 84.5 20.79C85.46 19.83 86.58 19.08 87.86 18.54C89.14 18 90.51 17.73 91.97 17.73C93.11 17.73 94.21 17.89 95.27 18.21C96.33 18.53 97.29 18.98 98.15 19.56ZM108.96 23.55C110.22 23.55 111.24 23.82 112.02 24.36C112.8 24.9 113.37 25.63 113.73 26.55C114.11 27.47 114.3 28.49 114.3 29.61V38.1C114.3 38.34 114.21 38.55 114.03 38.73C113.85 38.91 113.64 39 113.4 39C113.12 39 112.9 38.91 112.74 38.73C112.58 38.55 112.5 38.34 112.5 38.1V29.61C112.5 28.79 112.37 28.05 112.11 27.39C111.87 26.73 111.47 26.21 110.91 25.83C110.35 25.43 109.6 25.23 108.66 25.23C107.82 25.23 107.02 25.43 106.26 25.83C105.52 26.21 104.92 26.73 104.46 27.39C104 28.05 103.77 28.79 103.77 29.61V38.1C103.77 38.34 103.68 38.55 103.5 38.73C103.32 38.91 103.11 39 102.87 39C102.59 39 102.37 38.91 102.21 38.73C102.05 38.55 101.97 38.34 101.97 38.1V17.7C101.97 17.46 102.05 17.25 102.21 17.07C102.39 16.89 102.61 16.8 102.87 16.8C103.13 16.8 103.34 16.89 103.5 17.07C103.68 17.25 103.77 17.46 103.77 17.7V27.42L103.08 28.47C103.12 27.85 103.31 27.25 103.65 26.67C104.01 26.07 104.47 25.54 105.03 25.08C105.59 24.6 106.21 24.23 106.89 23.97C107.57 23.69 108.26 23.55 108.96 23.55ZM131.59 23.67C131.85 23.67 132.06 23.76 132.22 23.94C132.4 24.12 132.49 24.34 132.49 24.6V38.1C132.49 38.34 132.4 38.55 132.22 38.73C132.04 38.91 131.83 39 131.59 39C131.33 39 131.11 38.91 130.93 38.73C130.77 38.55 130.69 38.34 130.69 38.1V34.53L131.2 34.29C131.2 34.85 131.04 35.42 130.72 36C130.42 36.58 130 37.12 129.46 37.62C128.92 38.12 128.28 38.53 127.54 38.85C126.82 39.15 126.04 39.3 125.2 39.3C123.84 39.3 122.62 38.95 121.54 38.25C120.48 37.55 119.64 36.59 119.02 35.37C118.42 34.15 118.12 32.78 118.12 31.26C118.12 29.7 118.43 28.33 119.05 27.15C119.67 25.95 120.51 25.01 121.57 24.33C122.63 23.65 123.83 23.31 125.17 23.31C126.03 23.31 126.83 23.46 127.57 23.76C128.33 24.06 128.99 24.47 129.55 24.99C130.11 25.51 130.54 26.11 130.84 26.79C131.16 27.45 131.32 28.14 131.32 28.86L130.69 28.41V24.6C130.69 24.34 130.77 24.12 130.93 23.94C131.11 23.76 131.33 23.67 131.59 23.67ZM125.35 37.62C126.41 37.62 127.35 37.35 128.17 36.81C128.99 36.25 129.63 35.49 130.09 34.53C130.57 33.55 130.81 32.46 130.81 31.26C130.81 30.08 130.57 29.02 130.09 28.08C129.63 27.14 128.99 26.39 128.17 25.83C127.35 25.27 126.41 24.99 125.35 24.99C124.31 24.99 123.37 25.26 122.53 25.8C121.71 26.34 121.06 27.08 120.58 28.02C120.12 28.96 119.89 30.04 119.89 31.26C119.89 32.46 120.12 33.55 120.58 34.53C121.06 35.49 121.71 36.25 122.53 36.81C123.35 37.35 124.29 37.62 125.35 37.62ZM136.224 23.73H143.214C143.454 23.73 143.654 23.82 143.814 24C143.974 24.16 144.054 24.36 144.054 24.6C144.054 24.82 143.974 25.01 143.814 25.17C143.654 25.33 143.454 25.41 143.214 25.41H136.224C135.984 25.41 135.774 25.33 135.594 25.17C135.434 24.99 135.354 24.79 135.354 24.57C135.354 24.33 135.434 24.13 135.594 23.97C135.774 23.81 135.984 23.73 136.224 23.73ZM139.314 19.5C139.574 19.5 139.784 19.59 139.944 19.77C140.124 19.95 140.214 20.16 140.214 20.4V35.46C140.214 36.02 140.284 36.44 140.424 36.72C140.584 37 140.784 37.19 141.024 37.29C141.264 37.37 141.504 37.41 141.744 37.41C141.904 37.41 142.044 37.39 142.164 37.35C142.304 37.29 142.454 37.26 142.614 37.26C142.794 37.26 142.944 37.33 143.064 37.47C143.204 37.61 143.274 37.79 143.274 38.01C143.274 38.29 143.114 38.53 142.794 38.73C142.474 38.91 142.094 39 141.654 39C141.474 39 141.204 38.99 140.844 38.97C140.484 38.93 140.114 38.82 139.734 38.64C139.354 38.44 139.034 38.1 138.774 37.62C138.534 37.14 138.414 36.45 138.414 35.55V20.4C138.414 20.16 138.494 19.95 138.654 19.77C138.834 19.59 139.054 19.5 139.314 19.5ZM165.363 39.3C163.843 39.3 162.423 39.02 161.103 38.46C159.783 37.9 158.623 37.13 157.623 36.15C156.623 35.15 155.833 34 155.253 32.7C154.693 31.4 154.413 30 154.413 28.5C154.413 27 154.693 25.6 155.253 24.3C155.833 23 156.623 21.86 157.623 20.88C158.623 19.88 159.783 19.1 161.103 18.54C162.423 17.98 163.843 17.7 165.363 17.7C166.303 17.7 167.213 17.8 168.093 18C168.973 18.2 169.783 18.5 170.523 18.9C170.823 19.06 171.043 19.28 171.183 19.56C171.343 19.82 171.423 20.09 171.423 20.37C171.423 20.85 171.263 21.28 170.943 21.66C170.623 22.04 170.213 22.23 169.713 22.23C169.553 22.23 169.383 22.21 169.203 22.17C169.043 22.13 168.883 22.07 168.723 21.99C168.223 21.77 167.693 21.6 167.133 21.48C166.573 21.36 165.983 21.3 165.363 21.3C164.063 21.3 162.873 21.63 161.793 22.29C160.733 22.93 159.883 23.8 159.243 24.9C158.623 25.98 158.313 27.18 158.313 28.5C158.313 29.8 158.623 31 159.243 32.1C159.883 33.2 160.733 34.08 161.793 34.74C162.873 35.38 164.063 35.7 165.363 35.7C165.963 35.7 166.623 35.64 167.343 35.52C168.063 35.4 168.653 35.24 169.113 35.04L168.843 35.94V30.81L169.353 31.26H166.023C165.503 31.26 165.063 31.09 164.703 30.75C164.363 30.41 164.193 29.98 164.193 29.46C164.193 28.94 164.363 28.51 164.703 28.17C165.063 27.83 165.503 27.66 166.023 27.66H170.943C171.463 27.66 171.893 27.84 172.233 28.2C172.573 28.54 172.743 28.97 172.743 29.49V35.85C172.743 36.25 172.643 36.58 172.443 36.84C172.263 37.1 172.053 37.31 171.813 37.47C170.893 38.03 169.883 38.48 168.783 38.82C167.703 39.14 166.563 39.3 165.363 39.3ZM185.022 18C186.062 18 187.032 18.3 187.932 18.9C188.852 19.5 189.592 20.31 190.152 21.33C190.712 22.35 190.992 23.49 190.992 24.75C190.992 25.99 190.712 27.12 190.152 28.14C189.592 29.16 188.852 29.98 187.932 30.6C187.032 31.2 186.062 31.5 185.022 31.5H179.502L179.802 30.96V37.17C179.802 37.69 179.642 38.13 179.322 38.49C179.002 38.83 178.582 39 178.062 39C177.562 39 177.152 38.83 176.832 38.49C176.512 38.13 176.352 37.69 176.352 37.17V19.83C176.352 19.31 176.522 18.88 176.862 18.54C177.222 18.18 177.662 18 178.182 18H185.022ZM185.022 28.08C185.402 28.08 185.772 27.92 186.132 27.6C186.492 27.28 186.792 26.87 187.032 26.37C187.272 25.85 187.392 25.31 187.392 24.75C187.392 24.17 187.272 23.63 187.032 23.13C186.792 22.63 186.492 22.23 186.132 21.93C185.772 21.61 185.402 21.45 185.022 21.45H179.442L179.802 20.91V28.56L179.472 28.08H185.022ZM201.538 39C200.978 39 200.518 38.83 200.158 38.49C199.798 38.13 199.618 37.69 199.618 37.17V19.77H203.518V37.17C203.518 37.69 203.328 38.13 202.948 38.49C202.588 38.83 202.118 39 201.538 39ZM194.908 21.45C194.388 21.45 193.948 21.29 193.588 20.97C193.248 20.65 193.078 20.23 193.078 19.71C193.078 19.19 193.248 18.78 193.588 18.48C193.948 18.16 194.388 18 194.908 18H208.228C208.748 18 209.178 18.16 209.518 18.48C209.878 18.8 210.058 19.22 210.058 19.74C210.058 20.26 209.878 20.68 209.518 21C209.178 21.3 208.748 21.45 208.228 21.45H194.908Z" fill="white"/>
<path d="M86.279 50.3C86.895 50.3 87.3753 50.4687 87.72 50.806C88.072 51.136 88.248 51.598 88.248 52.192C88.248 52.5 88.182 52.7933 88.05 53.072C87.918 53.3507 87.7237 53.578 87.467 53.754C87.2103 53.9227 86.8913 54.018 86.51 54.04L86.466 53.82C86.7373 53.82 87.0013 53.8603 87.258 53.941C87.522 54.0143 87.7567 54.1353 87.962 54.304C88.1673 54.4727 88.3323 54.6853 88.457 54.942C88.5817 55.1913 88.644 55.4957 88.644 55.855C88.644 56.2363 88.578 56.5663 88.446 56.845C88.3213 57.1163 88.149 57.3363 87.929 57.505C87.7163 57.6737 87.4707 57.7983 87.192 57.879C86.9133 57.9597 86.6237 58 86.323 58H83.364C83.276 58 83.199 57.967 83.133 57.901C83.067 57.835 83.034 57.758 83.034 57.67V50.63C83.034 50.542 83.067 50.465 83.133 50.399C83.199 50.333 83.276 50.3 83.364 50.3H86.279ZM86.191 50.949H83.606L83.738 50.751V53.864L83.617 53.699H86.191C86.5723 53.6917 86.8913 53.567 87.148 53.325C87.412 53.083 87.544 52.7237 87.544 52.247C87.544 51.8437 87.4267 51.5283 87.192 51.301C86.9573 51.0663 86.6237 50.949 86.191 50.949ZM86.268 54.359H83.683L83.738 54.293V57.45L83.672 57.351H86.29C86.7593 57.351 87.1517 57.2337 87.467 56.999C87.7823 56.757 87.94 56.3757 87.94 55.855C87.94 55.4883 87.863 55.195 87.709 54.975C87.555 54.755 87.3497 54.5973 87.093 54.502C86.8363 54.4067 86.5613 54.359 86.268 54.359ZM96.5282 50.256C96.6236 50.256 96.7006 50.2927 96.7592 50.366C96.8252 50.432 96.8582 50.5053 96.8582 50.586C96.8582 50.6227 96.8509 50.6593 96.8362 50.696C96.8289 50.7253 96.8142 50.7583 96.7922 50.795L94.2072 54.348L94.3392 53.919V57.67C94.3392 57.758 94.3062 57.835 94.2402 57.901C94.1742 57.967 94.0936 58 93.9982 58C93.9029 58 93.8222 57.967 93.7562 57.901C93.6976 57.835 93.6682 57.758 93.6682 57.67V53.996L93.7232 54.26L91.2042 50.817C91.1749 50.7803 91.1529 50.7437 91.1382 50.707C91.1236 50.663 91.1162 50.6227 91.1162 50.586C91.1162 50.4907 91.1529 50.4137 91.2262 50.355C91.3069 50.289 91.3876 50.256 91.4682 50.256C91.5782 50.256 91.6699 50.3073 91.7432 50.41L94.1082 53.633L93.9432 53.611L96.2422 50.41C96.3156 50.3073 96.4109 50.256 96.5282 50.256ZM105.787 57.659C105.779 57.7543 105.739 57.835 105.666 57.901C105.6 57.967 105.523 58 105.435 58C105.332 58 105.248 57.967 105.182 57.901C105.123 57.835 105.094 57.7543 105.094 57.659V50.641C105.094 50.5457 105.127 50.465 105.193 50.399C105.259 50.333 105.343 50.3 105.446 50.3C105.534 50.3 105.611 50.333 105.677 50.399C105.75 50.465 105.787 50.5457 105.787 50.641V57.659ZM112.132 58C112.029 58 111.945 57.967 111.879 57.901C111.82 57.835 111.791 57.758 111.791 57.67V50.663H112.473V57.67C112.473 57.758 112.44 57.835 112.374 57.901C112.308 57.967 112.227 58 112.132 58ZM109.514 50.927C109.426 50.927 109.349 50.8977 109.283 50.839C109.217 50.7803 109.184 50.7033 109.184 50.608C109.184 50.52 109.217 50.4467 109.283 50.388C109.349 50.3293 109.426 50.3 109.514 50.3H114.75C114.838 50.3 114.915 50.3293 114.981 50.388C115.047 50.4467 115.08 50.5237 115.08 50.619C115.08 50.7143 115.047 50.7913 114.981 50.85C114.915 50.9013 114.838 50.927 114.75 50.927H109.514ZM120.605 58.11C120.048 58.1173 119.564 58.0293 119.153 57.846C118.743 57.6627 118.35 57.3877 117.976 57.021C117.94 56.9917 117.907 56.955 117.877 56.911C117.855 56.867 117.844 56.8157 117.844 56.757C117.844 56.669 117.877 56.5883 117.943 56.515C118.017 56.4417 118.097 56.405 118.185 56.405C118.273 56.405 118.354 56.4417 118.427 56.515C118.713 56.823 119.036 57.0577 119.395 57.219C119.762 57.3803 120.154 57.461 120.572 57.461C120.924 57.461 121.236 57.406 121.507 57.296C121.786 57.186 122.006 57.0283 122.167 56.823C122.329 56.6177 122.409 56.3793 122.409 56.108C122.409 55.7707 122.318 55.4993 122.134 55.294C121.951 55.0813 121.709 54.909 121.408 54.777C121.108 54.6377 120.774 54.513 120.407 54.403C120.107 54.315 119.821 54.216 119.549 54.106C119.278 53.9887 119.036 53.8493 118.823 53.688C118.611 53.5193 118.446 53.314 118.328 53.072C118.211 52.83 118.152 52.5367 118.152 52.192C118.152 51.8033 118.255 51.4587 118.46 51.158C118.666 50.8573 118.955 50.6227 119.329 50.454C119.711 50.278 120.151 50.19 120.649 50.19C121.082 50.19 121.496 50.2633 121.892 50.41C122.296 50.5567 122.615 50.773 122.849 51.059C122.959 51.1763 123.014 51.2827 123.014 51.378C123.014 51.4513 122.978 51.5247 122.904 51.598C122.831 51.6713 122.75 51.708 122.662 51.708C122.589 51.708 122.527 51.6823 122.475 51.631C122.351 51.477 122.193 51.3413 122.002 51.224C121.812 51.0993 121.599 51.004 121.364 50.938C121.137 50.872 120.899 50.839 120.649 50.839C120.305 50.839 119.993 50.894 119.714 51.004C119.443 51.1067 119.227 51.257 119.065 51.455C118.911 51.653 118.834 51.8913 118.834 52.17C118.834 52.478 118.922 52.731 119.098 52.929C119.274 53.127 119.505 53.292 119.791 53.424C120.077 53.5487 120.382 53.666 120.704 53.776C121.02 53.864 121.32 53.9667 121.606 54.084C121.9 54.194 122.156 54.3333 122.376 54.502C122.604 54.6707 122.78 54.8833 122.904 55.14C123.036 55.3967 123.102 55.7193 123.102 56.108C123.102 56.482 122.996 56.8193 122.783 57.12C122.571 57.4207 122.277 57.659 121.903 57.835C121.537 58.011 121.104 58.1027 120.605 58.11ZM129.233 51.147L126.56 57.791C126.531 57.8643 126.49 57.9193 126.439 57.956C126.388 57.9927 126.329 58.011 126.263 58.011C126.16 58.011 126.083 57.9853 126.032 57.934C125.981 57.8753 125.951 57.8057 125.944 57.725C125.937 57.6883 125.94 57.6443 125.955 57.593L128.859 50.487C128.896 50.4063 128.94 50.3513 128.991 50.322C129.05 50.2853 129.116 50.267 129.189 50.267C129.262 50.267 129.325 50.289 129.376 50.333C129.435 50.3697 129.479 50.421 129.508 50.487L132.401 57.56C132.416 57.604 132.423 57.648 132.423 57.692C132.423 57.7947 132.39 57.8753 132.324 57.934C132.258 57.9853 132.181 58.011 132.093 58.011C132.02 58.011 131.954 57.9927 131.895 57.956C131.844 57.912 131.803 57.857 131.774 57.791L129.035 51.103L129.233 51.147ZM127.198 55.778L127.473 55.129H130.883L131.015 55.778H127.198ZM140.038 57.351C140.126 57.351 140.203 57.384 140.269 57.45C140.335 57.5087 140.368 57.582 140.368 57.67C140.368 57.7653 140.335 57.846 140.269 57.912C140.203 57.9707 140.126 58 140.038 58H136.111C136.016 58 135.935 57.967 135.869 57.901C135.81 57.835 135.781 57.758 135.781 57.67V50.63C135.781 50.542 135.814 50.465 135.88 50.399C135.946 50.333 136.03 50.3 136.133 50.3C136.221 50.3 136.298 50.333 136.364 50.399C136.437 50.465 136.474 50.542 136.474 50.63V57.538L136.265 57.351H140.038ZM149.268 50.3C149.363 50.3 149.436 50.3293 149.488 50.388C149.546 50.4467 149.576 50.52 149.576 50.608V57.648C149.576 57.758 149.539 57.846 149.466 57.912C149.4 57.9707 149.323 58 149.235 58C149.191 58 149.143 57.9927 149.092 57.978C149.04 57.956 149 57.9267 148.971 57.89L144.065 51.279L144.252 51.18V57.703C144.252 57.7837 144.222 57.8533 144.164 57.912C144.105 57.9707 144.032 58 143.944 58C143.848 58 143.771 57.9707 143.713 57.912C143.661 57.8533 143.636 57.7837 143.636 57.703V50.63C143.636 50.52 143.669 50.4393 143.735 50.388C143.801 50.3293 143.874 50.3 143.955 50.3C143.999 50.3 144.046 50.311 144.098 50.333C144.149 50.3477 144.189 50.377 144.219 50.421L149.07 56.955L148.96 57.153V50.608C148.96 50.52 148.989 50.4467 149.048 50.388C149.114 50.3293 149.187 50.3 149.268 50.3Z" fill="white"/>
</g>
<defs>
<clipPath id="clip0_605_19">
<rect width="211" height="70" fill="white"/>
</clipPath>
</defs>
</svg>
